<?xml version="1.0" encoding="utf-8"?>
<!-- Generator: Adobe Illustrator 16.0.0, SVG Export Plug-In . SVG Version: 6.00 Build 0)  -->
<!DOCTYPE svg PUBLIC "-//W3C//DTD SVG 1.1//EN" "http://www.w3.org/Graphics/SVG/1.1/DTD/svg11.dtd">
<svg version="1.1" id="Layer_1" xmlns="http://www.w3.org/2000/svg" xmlns:xlink="http://www.w3.org/1999/xlink" x="0px" y="0px"
	 width="78.501px" height="78.501px" viewBox="0 0 78.501 78.501" enable-background="new 0 0 78.501 78.501" xml:space="preserve">
<g>
	<defs>
		<rect id="SVGID_1_" y="0" width="78.501" height="78.501"/>
	</defs>
	<clipPath id="SVGID_2_">
		<use xlink:href="#SVGID_1_"  overflow="visible"/>
	</clipPath>
	<path clip-path="url(#SVGID_2_)" fill="#FFFFFF" d="M37.62,0h4.765c0.181,0.04,0.359,0.104,0.54,0.118
		c4.006,0.317,7.887,1.192,11.604,2.713c6.54,2.676,11.99,6.818,16.25,12.455c4.017,5.315,6.513,11.286,7.357,17.92
		c0.114,0.887,0.244,1.773,0.365,2.658v4.765c-0.041,0.182-0.104,0.359-0.119,0.54c-0.315,3.705-1.105,7.297-2.448,10.773
		c-1.955,5.062-4.884,9.484-8.705,13.314c-2.443,2.449-5.188,4.526-8.206,6.222c-5.487,3.08-11.387,4.759-17.674,4.966
		c-6.904,0.226-13.434-1.259-19.558-4.486c-0.259-0.136-0.654-0.167-0.934-0.081c-2.275,0.695-4.539,1.43-6.807,2.152
		c-3.34,1.062-6.684,2.12-10.022,3.192c-1.265,0.406-2.519,0.852-3.777,1.279C0.167,78.417,0.084,78.333,0,78.25
		c0.134-0.299,0.295-0.589,0.399-0.897c0.855-2.51,1.696-5.023,2.547-7.533c1.279-3.777,2.572-7.548,3.828-11.331
		c0.097-0.292,0.041-0.705-0.094-0.989c-0.464-0.978-1.015-1.914-1.498-2.884c-2.169-4.361-3.301-9.003-3.664-13.838
		c-0.299-3.97,0.102-7.885,1.056-11.749c1.238-5.016,3.427-9.584,6.539-13.694c3.123-4.123,6.921-7.501,11.414-10.095
		c4.433-2.56,9.167-4.208,14.245-4.864C35.721,0.252,36.671,0.125,37.62,0 M9.696,69.009c0.592-0.175,1.033-0.297,1.47-0.435
		c3.441-1.091,6.885-2.175,10.319-3.293c0.49-0.16,0.851-0.078,1.283,0.158c1.52,0.826,3.027,1.69,4.607,2.387
		c4.092,1.804,8.411,2.59,12.871,2.554c4.59-0.036,8.987-0.981,13.171-2.912c2.556-1.18,4.948-2.625,7.11-4.41
		c3.55-2.93,6.395-6.446,8.469-10.574c2.827-5.627,3.851-11.583,3.169-17.819c-0.623-5.707-2.709-10.856-6.144-15.466
		c-2.166-2.908-4.734-5.397-7.724-7.433c-3.987-2.718-8.359-4.536-13.143-5.264c-7.252-1.104-14.159-0.008-20.628,3.493
		c-4.806,2.6-8.723,6.204-11.732,10.773c-2.1,3.187-3.586,6.64-4.436,10.365c-0.684,2.995-0.896,6.024-0.724,9.09
		c0.159,2.814,0.709,5.554,1.603,8.214c0.989,2.942,2.393,5.69,4.204,8.22c0.239,0.333,0.238,0.611,0.112,0.978
		c-1.053,3.06-2.091,6.123-3.131,9.188C10.19,67.505,9.967,68.195,9.696,69.009"/>
	<path clip-path="url(#SVGID_2_)" fill="#FFFFFF" d="M28.018,20.845c0.376,0,0.73-0.012,1.084,0.003
		c0.597,0.025,1.119,0.219,1.388,0.798c0.482,1.039,0.956,2.083,1.408,3.136c0.634,1.475,1.199,2.982,1.882,4.435
		c0.465,0.99,0.26,1.844-0.321,2.64c-0.637,0.874-1.346,1.699-2.046,2.527c-0.541,0.638-0.621,1.214-0.177,1.934
		c2.453,3.976,5.562,7.292,9.72,9.52c1.083,0.581,2.213,1.081,3.346,1.561c0.829,0.35,1.291,0.19,1.867-0.514
		c0.938-1.145,1.87-2.295,2.802-3.447c0.64-0.792,1.146-0.977,2.078-0.547c2.559,1.178,5.091,2.408,7.644,3.6
		c0.644,0.299,0.93,0.792,0.83,1.453c-0.179,1.17-0.33,2.357-0.665,3.486c-0.365,1.229-1.353,2.033-2.375,2.738
		c-2.554,1.761-5.335,2.595-8.407,1.734c-2.047-0.575-4.059-1.28-6.064-1.987c-4.609-1.625-8.407-4.468-11.756-7.962
		c-2.768-2.887-5.187-6.048-7.145-9.536c-1.609-2.864-2.373-5.926-1.642-9.22c0.517-2.328,1.775-4.222,3.591-5.73
		C25.91,20.76,26.971,20.693,28.018,20.845"/>
</g>
</svg>
