<?xml version="1.0" encoding="utf-8"?>
<!-- Generator: Adobe Illustrator 16.0.0, SVG Export Plug-In . SVG Version: 6.00 Build 0)  -->
<!DOCTYPE svg PUBLIC "-//W3C//DTD SVG 1.1//EN" "http://www.w3.org/Graphics/SVG/1.1/DTD/svg11.dtd">
<svg version="1.1" id="Layer_1" xmlns="http://www.w3.org/2000/svg" xmlns:xlink="http://www.w3.org/1999/xlink" x="0px" y="0px"
	 width="60px" height="60px" viewBox="0 0 60 60" enable-background="new 0 0 60 60" xml:space="preserve">
<g>
	<g>
		<path fill="#FFFFFF" d="M50.276,16.381c-1.557-5.087-5.041-9.576-10.089-12.26L40.185,4.12c-5.044-2.681-10.708-3.063-15.786-1.51
			c-5.047,1.543-9.504,4.986-12.195,9.97c-0.046,0.077-0.086,0.155-0.125,0.236c-2.628,5.016-2.993,10.631-1.45,15.671
			c1.045,3.419,2.962,6.57,5.642,9.082c-0.08,0.122-0.153,0.249-0.223,0.377L9.413,50.422c-0.669,1.264-0.76,2.697-0.369,3.987
			c0.409,1.337,1.338,2.525,2.684,3.24c1.344,0.715,2.848,0.818,4.185,0.411c1.29-0.396,2.428-1.271,3.098-2.535l6.635-12.477
			c0.07-0.129,0.132-0.26,0.188-0.395c3.577,0.816,7.255,0.649,10.669-0.396c5.087-1.555,9.575-5.042,12.261-10.09v-0.001
			C51.447,27.123,51.827,21.459,50.276,16.381z M12.299,32.169L12.299,32.169L12.299,32.169z M44.092,26.564
			c-1.051,3.436-3.421,6.477-6.866,8.309h-0.002c-3.445,1.831-7.297,2.096-10.742,1.043c-3.435-1.051-6.476-3.423-8.31-6.866
			c-1.83-3.446-2.096-7.3-1.042-10.745c1.05-3.437,3.423-6.477,6.866-8.308h0.002c3.445-1.832,7.296-2.097,10.742-1.043
			c3.438,1.051,6.478,3.421,8.31,6.865l0.002,0.004C44.883,19.267,45.144,23.119,44.092,26.564z"/>
	</g>
</g>
<g>
</g>
<g>
</g>
<g>
</g>
<g>
</g>
<g>
</g>
<g>
</g>
</svg>
