<?xml version="1.0" encoding="utf-8"?>
<!-- Generator: Adobe Illustrator 16.0.0, SVG Export Plug-In . SVG Version: 6.00 Build 0)  -->
<!DOCTYPE svg PUBLIC "-//W3C//DTD SVG 1.1//EN" "http://www.w3.org/Graphics/SVG/1.1/DTD/svg11.dtd">
<svg version="1.1" xmlns="http://www.w3.org/2000/svg" xmlns:xlink="http://www.w3.org/1999/xlink" x="0px" y="0px" width="119px"
	 height="119px" viewBox="0 0 119 119" enable-background="new 0 0 119 119" xml:space="preserve">
<g id="Layer_2" display="none">
	<path display="inline" fill="#F58235" d="M480.07,356.074c0,10.493-8.507,19-19,19h-816.958c-10.494,0-19-8.507-19-19v-593.468
		c0-10.493,8.506-19,19-19H461.07c10.493,0,19,8.507,19,19V356.074z"/>
</g>
<g id="Isolation_Mode">
	<g>
		<path fill="#F9F7F7" d="M116,91c0,4.786-4.557,8.667-10.178,8.667H13.178C7.557,99.667,3,95.786,3,91l0,0
			c0-4.786,4.557-8.667,10.178-8.667h92.644C111.443,82.333,116,86.214,116,91L116,91z"/>
		<path fill="#F9F7F7" d="M116,59.667c0,4.602-4.557,8.333-10.178,8.333H13.178C7.557,68,3,64.269,3,59.667l0,0
			c0-4.603,4.557-8.334,10.178-8.334h92.644C111.443,51.333,116,55.064,116,59.667L116,59.667z"/>
		<path fill="#F9F7F7" d="M116,27.833c0,4.694-4.557,8.5-10.178,8.5H13.178C7.557,36.333,3,32.527,3,27.833l0,0
			c0-4.694,4.557-8.5,10.178-8.5h92.644C111.443,19.333,116,23.139,116,27.833L116,27.833z"/>
	</g>
</g>
</svg>
