<?xml version="1.0" encoding="utf-8"?>
<!-- Generator: Adobe Illustrator 16.0.0, SVG Export Plug-In . SVG Version: 6.00 Build 0)  -->
<!DOCTYPE svg PUBLIC "-//W3C//DTD SVG 1.1//EN" "http://www.w3.org/Graphics/SVG/1.1/DTD/svg11.dtd">
<svg version="1.1" id="Layer_1" xmlns="http://www.w3.org/2000/svg" xmlns:xlink="http://www.w3.org/1999/xlink" x="0px" y="0px"
	 width="60px" height="60px" viewBox="0 0 60 60" enable-background="new 0 0 60 60" xml:space="preserve">
<path fill="#FFFFFF" d="M35.265,1.16C25.17,1.945,23.126,10.585,23.791,22.033c-2.585-0.23-6.124-0.23-8.71,0
	c0.092,3.319-0.182,7.002,0.139,10.09c2.904,0,5.808,0,8.708,0c0,8.618,0,17.235,0,25.852c3.185,0.229,7.325,0.229,10.508,0
	c0.413-8.295-0.139-17.556,0.275-25.852c2.812-0.089,5.986,0.184,8.571-0.136c0.581-3.198,0.812-6.745,1.382-9.954
	c-3.044-0.413-7.048,0.137-10.092-0.277c0.442-3.6-0.873-7.573,0.692-9.676c1.771-2.38,5.785-1.202,9.677-1.521
	c0-2.994,0-5.988,0-8.984C41.899,1.229,38.42,0.915,35.265,1.16z"/>
<g>
</g>
<g>
</g>
<g>
</g>
<g>
</g>
<g>
</g>
<g>
</g>
</svg>
