<?xml version="1.0" encoding="utf-8"?>
<!-- Generator: Adobe Illustrator 16.0.0, SVG Export Plug-In . SVG Version: 6.00 Build 0)  -->
<!DOCTYPE svg PUBLIC "-//W3C//DTD SVG 1.1//EN" "http://www.w3.org/Graphics/SVG/1.1/DTD/svg11.dtd">
<svg version="1.1" id="Layer_1" xmlns="http://www.w3.org/2000/svg" xmlns:xlink="http://www.w3.org/1999/xlink" x="0px" y="0px"
	 width="113.387px" height="65.263px" viewBox="0 0 113.387 65.263" enable-background="new 0 0 113.387 65.263"
	 xml:space="preserve">
<g>
	<polygon fill="#FFFFFF" points="0.648,0.934 0.648,21.441 16.597,21.441 16.549,14.205 26.638,14.205 4.083,64.205 22.029,64.205 
		44.741,12.426 44.741,0.934 	"/>
	<g>
		<path fill="#FFFFFF" d="M96.016,17.605c-1.636,0-3.007,0.529-4.194,1.621c-1.177,1.082-1.75,2.373-1.75,3.943
			c0,1.645,0.558,3.021,1.704,4.209c1.144,1.184,2.479,1.758,4.086,1.758c1.656,0,3.036-0.555,4.22-1.693
			c1.174-1.133,1.745-2.48,1.745-4.117c0-1.58-0.558-2.898-1.706-4.033C98.971,18.156,97.629,17.605,96.016,17.605z"/>
		<path fill="#FFFFFF" d="M57.65,42.588c-1.633,0-3.006,0.531-4.193,1.623c-1.177,1.082-1.75,2.371-1.75,3.941
			c0,1.646,0.558,3.021,1.704,4.209c1.144,1.184,2.479,1.758,4.085,1.758c1.658,0,3.039-0.553,4.22-1.691
			c1.175-1.137,1.746-2.484,1.746-4.119c0-1.58-0.558-2.898-1.707-4.031C60.606,43.139,59.264,42.588,57.65,42.588z"/>
		<path fill="#FFFFFF" d="M72.126,29.359c1.509,0,2.753-0.576,3.805-1.766c1.067-1.203,1.586-2.572,1.586-4.18
			c0-1.611-0.562-2.955-1.72-4.113c-1.157-1.158-2.51-1.721-4.136-1.721c-1.593,0-2.925,0.557-4.069,1.699
			c-1.142,1.143-1.697,2.48-1.697,4.092c0,1.664,0.601,3.047,1.834,4.227C68.97,28.783,70.408,29.359,72.126,29.359z"/>
		<path fill="#FFFFFF" d="M52.788,0.934v11.473L29.003,64.309h7.134l-0.008,0.02h16.659h14.614h45.336V0.934H52.788z M89.561,5.492
			h12.464v5.418H89.561V5.492z M57.757,28.916h2.664V10.988h-2.554V5.492h8.427v9.273c0.718-0.744,1.342-1.268,1.894-1.59
			c1.032-0.605,2.393-0.91,4.043-0.91c3.039,0,5.661,1.129,7.796,3.357c2.128,2.227,3.207,4.914,3.207,7.99
			c0,2.988-1.033,5.607-3.07,7.787c-2.048,2.189-4.591,3.299-7.558,3.299c-1.771,0-3.223-0.295-4.313-0.881
			c-0.632-0.34-1.32-0.895-2.087-1.688v2.213h-8.448V28.916z M65.812,56.479c-2.246,2.186-5.014,3.293-8.227,3.293
			c-3.184,0-5.952-1.139-8.229-3.385c-2.278-2.246-3.434-4.986-3.434-8.145c0-3.164,1.178-5.873,3.498-8.053
			c2.312-2.174,5.112-3.277,8.318-3.277c3.215,0,5.958,1.105,8.153,3.287c2.196,2.178,3.309,4.869,3.309,7.998
			C69.201,51.504,68.061,54.291,65.812,56.479z M107.566,59.326H96.542v-5.428h2.753v-7.922c0-0.953-0.351-1.744-1.075-2.418
			c-0.731-0.684-1.569-1.016-2.56-1.016c-1.081,0-1.96,0.322-2.686,0.986c-0.714,0.65-1.06,1.443-1.06,2.424v7.945h2.528v5.428
			H83.376v-5.428h2.666V46.08c0-0.979-0.323-1.797-0.987-2.5c-0.657-0.699-1.443-1.037-2.404-1.037c-1.18,0-2.143,0.432-2.94,1.326
			c-0.691,0.775-1.027,1.551-1.027,2.367v7.662h2.597v5.428H70.256v-5.428h2.686V42.896h-2.597v-5.383h7.96v1.826
			c0.506-0.588,1.1-1.08,1.777-1.473c1.148-0.664,2.379-1,3.654-1c1.553,0,2.995,0.475,4.286,1.406
			c0.923,0.662,1.646,1.461,2.157,2.379c0.641-1.09,1.463-1.957,2.451-2.586c1.252-0.795,2.741-1.199,4.427-1.199
			c2.132,0,4.007,0.727,5.575,2.158c1.58,1.443,2.381,3.24,2.381,5.338v9.535h2.553V59.326z M104.176,31.496
			c-2.246,2.184-5.014,3.293-8.227,3.293c-3.184,0-5.952-1.139-8.229-3.385c-2.278-2.246-3.434-4.986-3.434-8.145
			c0-3.164,1.178-5.873,3.498-8.053c2.312-2.174,5.111-3.275,8.319-3.275c3.214,0,5.958,1.104,8.152,3.283
			c2.196,2.18,3.31,4.871,3.31,8C107.566,26.521,106.425,29.307,104.176,31.496z"/>
	</g>
</g>
</svg>
